<svg width="92" height="92" viewBox="0 0 92 92" fill="none" xmlns="http://www.w3.org/2000/svg">
<g clip-path="url(#clip0_101_7478)">
<mask id="mask0_101_7478" style="mask-type:luminance" maskUnits="userSpaceOnUse" x="0" y="0" width="92" height="92">
<path d="M92 0H0V92H92V0Z" fill="white"/>
</mask>
<g mask="url(#mask0_101_7478)">
<path d="M54.6431 91.9995H0V86.2874H53.9645L85.2962 70.6197C85.9139 70.3158 86.2887 69.698 86.2887 69.0094V67.9054C86.2887 66.9129 85.4785 66.1027 84.4861 66.1027C84.2127 66.1027 83.9291 66.1736 83.6861 66.2951L69.5494 73.3643C67.757 74.2556 65.7519 74.7316 63.7469 74.7316H43.1291V69.0195H63.7469C64.8709 69.0195 65.9949 68.7562 66.9975 68.2498L81.1342 61.1805C82.1671 60.664 83.3317 60.3906 84.4861 60.3906C88.6279 60.3906 92 63.7631 92 67.8953V68.9992C92 71.8654 90.4101 74.4379 87.8481 75.714L55.9089 91.6855C55.514 91.8881 55.0785 91.9894 54.6329 91.9894" fill="#C7F266"/>
<path d="M22.9874 74.7626H17.276V68.9594C17.276 62.6599 22.4 57.5352 28.6988 57.5352H69.7014C73.8128 57.5352 77.1444 60.8774 77.1444 64.9792C77.1444 67.8149 75.5646 70.3672 73.033 71.6433L70.4811 66.5388C71.0785 66.2451 71.4431 65.6476 71.4431 64.9893C71.4431 64.0271 70.6633 63.2473 69.7114 63.2473H28.7089C25.5595 63.2473 22.9874 65.8096 22.9874 68.9695V74.7727V74.7626Z" fill="#C7F266"/>
<path d="M14.3798 63.2793H0V68.9914H14.3798V63.2793Z" fill="#C7F266"/>
</g>
<path d="M35.5618 36.1419L61.6729 36.2168" stroke="#C7F266" stroke-width="5" stroke-linecap="round"/>
<path d="M43.5125 25.1116L53.957 25.1416" stroke="#C7F266" stroke-width="5" stroke-linecap="round"/>
<path d="M25.0001 47.2167L72.0001 47.3516" stroke="#C7F266" stroke-width="5" stroke-linecap="round"/>
</g>
<defs>
<clipPath id="clip0_101_7478">
<rect width="92" height="92" fill="white"/>
</clipPath>
</defs>
</svg>
